<?xml version="1.0" encoding="UTF-8"?>
<svg id="Layer_1" data-name="Layer 1" xmlns="http://www.w3.org/2000/svg" viewBox="0 0 500 500">
  <defs>
    <style>
      .cls-1 {
        fill: #fff;
      }

      .cls-2 {
        fill: #1e1e1e;
      }
    </style>
  </defs>
  <rect class="cls-1" width="500" height="500" rx="79.92" ry="79.92"/>
  <path class="cls-2" d="M260.51,83.05c44.31,0,88.62,0,132.94,0,6.88,0,7.4,.48,7.41,7.35,.03,22.99,.03,45.98,0,68.97,0,5.86-.68,6.51-6.73,6.51-88.96,.01-177.91,.01-266.87,0-6.65,0-7.09-.46-7.1-7.13-.01-22.82-.02-45.64,.02-68.47,.01-6.96,.33-7.23,7.39-7.23,44.31,0,88.62,0,132.94,0Z"/>
  <path class="cls-2" d="M216.62,291.26c-29.82,0-59.64,0-89.47-.01-6.85,0-7-.17-7-7.02-.01-23.16-.02-46.32,0-69.47,0-7.16,.54-7.69,7.68-7.69,59.81-.01,119.62-.01,179.43,0,6.78,0,7.31,.54,7.32,7.49,.03,21.99,.01,43.98,.01,65.98q0,10.73-10.52,10.73c-29.16,0-58.31,0-87.47,0Z"/>
  <path class="cls-2" d="M175.23,413.91c-16.33,0-32.66-.12-48.99,.08-4.47,.05-6.2-1.27-6.16-5.96,.18-23.66,.16-47.33,.01-70.99-.03-4.41,1.7-5.8,5.92-5.79,32.83,.1,65.66,.1,98.49,0,4.42-.01,5.75,1.79,5.73,6-.13,23.5-.16,47,0,70.49,.03,4.87-1.84,6.32-6.51,6.26-16.16-.2-32.33-.08-48.49-.08Z"/>
</svg>